<?xml version="1.0" standalone="no"?>
<!DOCTYPE svg PUBLIC "-//W3C//DTD SVG 20010904//EN"
 "http://www.w3.org/TR/2001/REC-SVG-20010904/DTD/svg10.dtd">
<svg version="1.0" xmlns="http://www.w3.org/2000/svg"
 width="500.000000pt" height="500.000000pt" viewBox="0 0 500.000000 500.000000"
 preserveAspectRatio="xMidYMid meet">

<g transform="translate(0.000000,500.000000) scale(0.100000,-0.100000)"
fill="#000000" stroke="none">
<path d="M2910 3476 c-149 -42 -244 -149 -272 -306 -21 -122 22 -262 107 -344
122 -119 343 -149 505 -68 l55 28 3 162 2 162 -130 0 -130 0 0 -54 c0 -61 6
-66 76 -66 l44 0 0 -64 c0 -63 -1 -64 -31 -75 -18 -6 -62 -11 -99 -11 -131 0
-219 74 -240 203 -19 122 23 235 108 284 40 24 58 28 123 28 63 0 86 -5 137
-29 33 -16 67 -26 76 -23 8 3 27 25 43 47 l27 42 -25 19 c-35 27 -101 57 -151
69 -58 13 -173 11 -228 -4z"/>
<path d="M3658 3471 c-108 -35 -179 -98 -227 -200 -23 -50 -26 -68 -26 -171 0
-103 3 -121 26 -170 56 -117 153 -189 286 -212 224 -38 417 98 454 320 29 177
-59 346 -218 419 -77 35 -212 42 -295 14z m197 -122 c101 -28 158 -117 158
-248 -1 -163 -80 -252 -225 -252 -79 0 -113 12 -160 58 -52 51 -72 114 -66
218 3 66 9 91 32 128 51 89 152 126 261 96z"/>
<path d="M680 3109 c-80 -204 -146 -375 -148 -380 -2 -5 30 -9 72 -9 87 0 88
0 127 113 l24 67 151 0 152 0 28 -76 c15 -42 34 -82 41 -90 10 -9 38 -14 85
-14 62 0 70 2 65 18 -3 13 -251 649 -284 730 -4 8 -31 12 -87 12 l-81 0 -145
-371z m284 58 l55 -157 -109 0 c-61 0 -110 3 -110 8 0 10 104 311 107 308 1
-1 27 -73 57 -159z"/>
<path d="M1360 3100 l0 -380 70 0 71 0 -3 260 c-3 216 -1 257 10 243 7 -10 56
-100 108 -200 52 -100 102 -189 110 -198 21 -21 87 -19 106 3 9 9 62 106 119
214 l104 197 3 -260 2 -259 70 0 70 0 0 380 0 380 -79 0 c-51 0 -82 -4 -89
-12 -5 -7 -64 -119 -131 -250 l-122 -236 -61 116 c-33 65 -92 177 -130 250
l-70 132 -79 0 -79 0 0 -380z"/>
<path d="M2360 3100 l0 -380 80 0 80 0 0 380 0 380 -80 0 -80 0 0 -380z"/>
<path d="M540 2615 l0 -45 1835 0 1835 0 0 45 0 45 -1835 0 -1835 0 0 -45z"/>
<path d="M376 2425 c-115 -44 -176 -155 -146 -265 24 -88 68 -123 215 -170 74
-23 125 -64 125 -100 0 -98 -110 -130 -231 -66 -35 18 -70 31 -77 29 -7 -3
-26 -24 -42 -49 l-31 -43 41 -30 c61 -44 133 -66 220 -66 137 0 236 72 260
191 29 138 -26 211 -204 270 -130 44 -170 101 -111 159 34 35 116 35 185 0 27
-14 55 -22 63 -19 19 7 60 82 54 98 -3 8 -31 26 -63 42 -70 34 -194 43 -258
19z"/>
<path d="M1667 2430 c-182 -46 -297 -236 -268 -440 22 -147 100 -254 220 -302
44 -17 77 -22 152 -22 87 -1 101 2 160 31 36 18 76 44 89 58 l24 26 -41 41
-42 41 -40 -26 c-50 -33 -122 -50 -176 -41 -121 20 -185 111 -185 263 0 165
98 265 244 247 26 -3 68 -17 92 -31 25 -15 52 -24 62 -20 9 3 30 24 46 46 l29
42 -24 19 c-58 47 -131 72 -219 75 -47 1 -102 -2 -123 -7z"/>
<path d="M4269 2422 c-170 -56 -267 -206 -257 -396 14 -274 276 -435 545 -334
80 30 172 121 202 202 58 156 26 331 -80 437 -23 23 -71 55 -107 72 -86 40
-214 48 -303 19z m199 -158 c26 -17 42 -52 42 -95 0 -24 4 -29 25 -29 50 0 65
-30 65 -134 0 -80 -3 -98 -23 -127 l-23 -34 -148 -3 c-194 -3 -186 -10 -186
154 0 112 2 124 19 134 11 5 29 10 40 10 17 0 21 6 21 30 0 94 90 144 168 94z"/>
<path d="M4366 2208 c-9 -12 -16 -33 -16 -45 0 -21 4 -23 55 -23 52 0 55 1 55
26 0 14 -5 34 -10 45 -15 27 -64 25 -84 -3z"/>
<path d="M4370 2050 c-24 -24 -25 -38 -6 -66 8 -11 16 -31 18 -44 2 -17 9 -25
23 -25 14 0 21 8 23 25 2 13 10 33 18 44 8 11 14 26 14 33 0 18 -37 53 -55 53
-8 0 -24 -9 -35 -20z"/>
<path d="M830 2050 l0 -380 245 0 245 0 0 60 0 60 -165 0 -165 0 0 100 0 99
128 3 127 3 3 58 3 57 -131 0 -130 0 0 100 0 100 165 0 165 0 0 60 0 60 -245
0 -245 0 0 -380z"/>
<path d="M2130 2051 l0 -381 80 0 80 0 0 145 0 145 38 0 c47 0 50 -3 142 -150
39 -63 79 -121 88 -127 10 -8 48 -13 99 -13 l82 0 -85 133 c-48 72 -100 147
-117 165 -22 22 -26 32 -15 32 32 0 99 61 124 113 54 116 16 230 -96 285 -53
26 -62 27 -237 30 l-183 4 0 -381z m330 244 c16 -8 34 -24 40 -34 15 -29 12
-109 -6 -136 -21 -32 -83 -55 -149 -55 l-55 0 0 120 0 120 70 0 c44 0 82 -6
100 -15z"/>
<path d="M2810 2050 l0 -380 245 0 245 0 0 60 0 60 -165 0 -165 0 0 100 0 99
128 3 127 3 3 58 3 57 -131 0 -130 0 0 100 0 100 165 0 165 0 0 60 0 60 -245
0 -245 0 0 -380z"/>
<path d="M3350 2370 l0 -59 113 -3 112 -3 3 -317 2 -318 75 0 75 0 2 318 3
317 113 3 112 3 0 59 0 60 -305 0 -305 0 0 -60z"/>
</g>
</svg>
